<?xml version="1.0" standalone="no"?>
<!DOCTYPE svg PUBLIC "-//W3C//DTD SVG 1.1//EN" "http://www.w3.org/Graphics/SVG/1.1/DTD/svg11.dtd">
<svg xmlns="http://www.w3.org/2000/svg" version="1.1" id="Layer_1" x="0" y="0" viewBox="0 0 205 25" xml:space="preserve" width="205" height="25"><style type="text/css" id="style2">.st0{fill:#201d0c}</style><g id="g24" transform="matrix(.47959 0 0 .47105 -.371 -.218)"><g id="g22"><path class="st0" d="M27.388.463c14.785 0 26.688 11.83 26.688 26.464 0 14.63-11.98 26.61-26.612 26.61-14.859 0-26.69-11.906-26.69-26.842C.774 12.14 12.605.463 27.388.463zm.076 36.549c5.462 0 9.932-4.554 9.932-10.01 0-5.385-4.47-9.787-9.932-9.787-5.453 0-9.931 4.328-9.931 9.712 0 5.531 4.478 10.085 9.931 10.085z" id="path4"/><path class="st0" d="M66.659 17.145c-4.924 0-8.263-3.11-8.263-7.66 0-2.349.91-4.395 2.577-5.837 1.674-1.363 3.484-1.972 6.445-1.972H89.71c3.714 0 5.307.38 7.054 1.592 2.045 1.366 3.258 3.715 3.258 6.142 0 1.972-.456 3.109-2.424 5.839L82.66 36.554h8.335c3.492 0 5.164.378 6.904 1.666 1.968 1.444 3.106 3.642 3.106 6.221 0 2.422-1.138 4.776-2.882 6.139-1.67 1.29-3.184 1.67-6.825 1.67H66.74c-4.859 0-8.344-3.262-8.344-7.89 0-1.663.605-3.33 1.593-4.845l15.692-22.37H66.66z" id="path6"/><path class="st0" d="M123.217 41.862c-.077 4.17-.302 5.233-1.437 7.052-1.519 2.35-4.097 3.715-6.902 3.715-2.882 0-5.459-1.366-6.971-3.715-1.137-1.82-1.443-3.26-1.443-7.052v-30.48c0-3.562.38-5.079 1.746-6.824 1.589-2.045 4.01-3.262 6.59-3.262s5.235 1.29 6.756 3.262c1.36 1.819 1.66 2.882 1.66 7.203v7.13h10.162v-6.905c0-4.015.31-5.532 1.744-7.428 1.517-2.045 3.868-3.262 6.45-3.262 2.576 0 5.152 1.217 6.67 3.186 1.287 1.666 1.82 3.64 1.82 6.9v30.633c0 3.483-.306 4.848-1.368 6.592-1.516 2.505-4.167 4.022-7.05 4.022-2.654 0-5.155-1.215-6.67-3.336-1.287-1.82-1.596-3.26-1.596-7.278v-7.284h-10.161z" id="path8"/><path class="st0" d="M163.624 52.629c-4.62 0-8.259-3.64-8.259-8.34 0-1.441.38-2.958 1.062-4.399l15.84-33.587c1.448-3.109 4.322-5.007 7.66-5.007 3.41 0 6.292 1.898 7.81 5.08l15.925 33.968a8.778 8.778 0 0 1 .984 4.017c0 4.553-3.79 8.268-8.417 8.268-3.862 0-6.14-1.822-8.492-6.975h-15.47c-2.12 4.926-4.62 6.975-8.643 6.975zm20.24-19.203-3.94-9.258-3.929 9.258z" id="path10"/><path class="st0" d="M247.179 39.055c1.061 1.671 1.587 3.642 1.587 5.386 0 4.624-3.632 8.188-8.335 8.188-2.959 0-5.389-1.366-6.903-3.868l-6.9-11.447v6.897c0 4.777-3.562 8.418-8.183 8.418-2.508 0-5.006-1.136-6.522-3.036-1.371-1.741-1.977-3.94-1.977-7.128V11.307c0-3.642.762-5.685 2.734-7.433 1.897-1.666 3.563-2.198 7.58-2.198h6.97c4.101 0 5.924.227 8.114.76 7.813 2.198 13.272 9.246 13.272 17.435 0 4.854-1.515 8.573-5.38 12.893zm-21.06-15.622h2.338c3.218.094 4.873-1.069 4.873-3.41 0-2.339-1.757-3.607-4.967-3.509h-2.244z" id="path12"/><path class="st0" d="M285.238 6.454c1.29-3.11 4.397-5.158 7.732-5.158 4.621 0 8.344 3.642 8.344 8.19 0 1.365-.303 2.73-.91 3.942l-15.698 33.587c-1.742 3.716-4.47 5.614-8.111 5.614-3.49 0-6.364-1.898-7.886-5.156L253.166 13.96c-.835-1.745-1.215-3.261-1.215-4.551 0-4.397 3.87-8.114 8.49-8.114 3.643 0 6.524 2.124 8.108 5.991l8.046 18.957z" id="path14"/><path class="st0" d="M330.725 36.629c3.643 0 5.235.456 6.973 1.897 1.747 1.515 2.735 3.638 2.735 5.915 0 2.35-1.065 4.624-2.735 6.063-1.661 1.365-3.106 1.745-6.89 1.745h-12.97c-3.869 0-4.93-.153-6.372-.682-2.576-1.063-4.242-3.108-4.776-6.069-.224-1.057-.303-1.516-.303-5.004V13.05c0-4.245.079-4.776.756-6.369.689-1.895 2.281-3.412 4.02-4.167 1.896-.76 2.279-.837 7.203-.837h10.012c4.773 0 5.234.078 6.364.38 3.491.91 5.763 3.79 5.763 7.282 0 2.423-.985 4.697-2.726 6.14-1.518 1.288-3.26 1.816-6.372 1.816h-8.339v3.86h6.597c4.097 0 6.751 2.058 6.751 5.62 0 1.89-.832 3.225-2.2 4.368-1.293.982-2.506 1.286-5.157 1.286h-5.99v4.2z" id="path16"/><path class="st0" d="M344.9 40.726c0-4.245 3.343-7.584 7.588-7.584 2.037 0 3.786.684 5.913 2.425 3.637 2.806 4.088 3.108 5.306 3.108 1.29 0 2.122-.908 2.122-2.194 0-.914-.38-1.518-1.29-2.127-.457-.302-.682-.455-3.343-1.443-1.36-.453-2.719-.906-4.087-1.435-7.36-2.578-10.998-7.356-10.998-14.406 0-9.857 7.587-16.607 18.58-16.607 9.1 0 16.223 4.855 16.223 11.07 0 4.019-2.724 6.9-6.515 6.9-2.278 0-4.1-.759-6.904-2.881-1.742-1.442-2.576-1.82-3.486-1.82-1.062 0-1.97.912-1.97 1.973 0 1.51 1.06 2.196 5 3.486 4.322 1.291 8.417 3.333 10.768 5.306 3.107 2.581 5.082 7.128 5.082 11.906 0 4.548-1.742 8.95-4.776 12.056-3.418 3.41-7.964 5.078-14.183 5.078-10.765 0-19.03-5.611-19.03-12.81z" id="path18"/><path class="st0" d="M394.179 17.215c-2.876 0-4.775-.677-6.289-2.192-1.516-1.595-2.351-3.49-2.351-5.538 0-2.881 1.897-5.914 4.323-6.972 1.742-.76 2.428-.837 9.02-.837h16.833c4.703 0 4.703 0 5.69.153 4.017.528 6.821 3.638 6.821 7.58 0 2.196-1.057 4.477-2.726 5.99-1.294 1.214-3.416 1.816-6.446 1.816h-3.715v25.177c0 3.034-.38 4.703-1.442 6.444-1.518 2.427-4.018 3.793-6.901 3.793-2.806 0-5.304-1.29-6.897-3.487-1.141-1.747-1.44-3.188-1.44-6.599V17.215Z" id="path20"/></g></g></svg>